# xmcd
#
# Track frame offsets: 
#        150
#        15632
#        35605
#        53666
#        67546
#        85059
#        103758
#        117044
#        131246
#        147162
#        173382
#        210990
#        231820
#        249977
#        265349
#
# Disc length: 3744 seconds
#
# Revision: 0
# Processed by: cddbd v1.5.2PL0 Copyright (c) Steve Scherf et al.
# Submitted via: ExactAudioCopy v0.99pb4
#
DISCID=bb0e9e0f
DTITLE=Shooter Jennings - Put The O Back In Country
DYEAR=2005
DGENRE=Country
TTITLE0=Put the O Back in Country
TTITLE1=4th of July
TTITLE2=Lonesome Blues
TTITLE3=Solid Country Gold
TTITLE4=Busted in Baylor County
TTITLE5=Sweet Savannah
TTITLE6=Steady at the Wheel
TTITLE7=Manifesto No. 1
TTITLE8=The Letter
TTITLE9=Southern Comfort
TTITLE10=Daddy's Farm
TTITLE11=Electric Rodeo
TTITLE12=Gone to Carolina
TTITLE13=Manifesto No. 2
TTITLE14=It Ain't Easy
EXTD=
EXTT0=
EXTT1=
EXTT2=
EXTT3=
EXTT4=
EXTT5=
EXTT6=
EXTT7=
EXTT8=
EXTT9=
EXTT10=
EXTT11=
EXTT12=
EXTT13=
EXTT14=
PLAYORDER=
